<?xml version="1.0" encoding="utf-8"?>
<!-- Generator: Adobe Illustrator 25.4.1, SVG Export Plug-In . SVG Version: 6.00 Build 0)  -->
<svg version="1.1" id="Layer_1" xmlns="http://www.w3.org/2000/svg" xmlns:xlink="http://www.w3.org/1999/xlink" x="0px" y="0px"
	 viewBox="0 0 20 20" style="enable-background:new 0 0 20 20;" xml:space="preserve" fill="#fff">
<g>
	<path class="st0" d="M10,1.2c-5,0-9,4-9,9c0,4,2.6,7.3,6.2,8.5c0.4,0.1,0.6-0.2,0.6-0.4c0-0.2,0-0.9,0-1.7c-2.5,0.5-3-1.1-3-1.1
		c-0.4-1-1-1.3-1-1.3c-0.8-0.6,0.1-0.5,0.1-0.5c0.9,0.1,1.4,0.9,1.4,0.9c0.8,1.4,2.1,1,2.6,0.7c0.1-0.6,0.3-1,0.6-1.2
		c-2-0.2-4.1-1-4.1-4.4c0-1,0.4-1.8,0.9-2.4C5.1,7.1,4.8,6.2,5.3,5c0,0,0.8-0.2,2.5,0.9C8.5,5.7,9.2,5.6,10,5.6s1.5,0.1,2.3,0.3
		C14,4.7,14.7,5,14.7,5c0.5,1.2,0.2,2.2,0.1,2.4c0.6,0.6,0.9,1.4,0.9,2.4c0,3.5-2.1,4.2-4.1,4.4c0.3,0.3,0.6,0.8,0.6,1.7
		c0,1.2,0,2.2,0,2.5c0,0.2,0.2,0.5,0.6,0.4c3.6-1.2,6.1-4.6,6.1-8.5C19,5.3,15,1.2,10,1.2z"/>
</g>
</svg>
